<?xml version="1.0" encoding="UTF-8"?>
<svg id="Layer_7" data-name="Layer 7" xmlns="http://www.w3.org/2000/svg" viewBox="0 0 1024 1024">
  <defs>
    <style>
      .cls-1 {
        fill: #1f7a63;
      }
    </style>
  </defs>
  <path class="cls-1" d="M487.31,578.87c2.88-7.9,1.54-16.69-3.43-23.46-.82-1.11-1.62-2.23-2.41-3.37-59.21-84.56-38.66-201.11,45.9-260.32,23.45-16.42,49.35-26.69,75.81-31.18l60.03-164.93c5.88-16.16-5.93-33.3-23.13-33.56-76.21-1.16-153.46,20.36-221.06,66.44-175.14,119.41-220.17,357.04-100.64,532.1,28.23,41.35,63.1,75.4,102.17,101.73l66.77-183.45Z"/>
  <path class="cls-1" d="M604.18,262.17l-65.72,180.56c-3.55,9.76-2,20.6,3.97,29.1.03.05.06.09.09.14,59.21,84.56,38.66,201.11-45.9,260.32-23.16,16.21-48.72,26.43-74.84,31.01l-60.1,165.13c-6.63,18.21,3.8,33.31,23.19,33.55,74.52.95,149.99-19.79,216.42-63.98,179.48-119.4,225.34-361.72,101.73-538.32-27.59-39.41-61.25-72.03-98.85-97.49Z"/>
</svg>