<?xml version="1.0" encoding="UTF-8"?>
<svg id="Layer_2" data-name="Layer 2" xmlns="http://www.w3.org/2000/svg" viewBox="0 0 500 176.29">
  <defs>
    <style>
      .cls-1 {
        fill: #1f7a63;
      }

      .cls-2 {
        fill: #6b7280;
      }

      .cls-3 {
        fill: #0f1720;
      }
    </style>
  </defs>
  <g id="Layer_4" data-name="Layer 4">
    <g>
      <g>
        <path class="cls-1" d="M78.58,33.27l-12.63,21.87c-2.06,3.57-1.83,7.98.48,11.4,4.29,6.37,6.69,14.11,6.38,22.44-.72,19.39-16.35,35.22-35.73,36.17-3.79.19-7.46-.19-10.94-1.05l-9.34,16.18c-3.73,6.47.12,14.75,7.5,15.91,4.55.72,9.25.99,14.06.78,35.97-1.59,64.97-30.82,66.28-66.8.84-23.02-9.52-43.66-26.06-56.89Z"/>
        <path class="cls-1" d="M26.11,123.76l12.63-21.87c1.86-3.22,1.6-8.32-.48-11.4-4.29-6.37-6.69-14.11-6.38-22.44.72-19.39,16.35-35.22,35.73-36.17,3.79-.19,7.46.19,10.94,1.05l9.34-16.18c4.24-7.35.88-14.59-7.5-15.91-4.55-.72-9.25-.99-14.06-.78C30.36,1.66,1.37,30.89.05,66.87c-.84,23.02,9.52,43.66,26.06,56.89Z"/>
      </g>
      <g>
        <path class="cls-3" d="M172.26,62.13c-.3-3-1.58-5.33-3.83-6.99-2.26-1.66-5.32-2.49-9.19-2.49-2.63,0-4.85.37-6.66,1.1-1.81.73-3.19,1.74-4.15,3.03-.96,1.29-1.43,2.75-1.43,4.39-.05,1.36.24,2.55.87,3.57.63,1.02,1.51,1.89,2.62,2.62,1.12.73,2.41,1.36,3.87,1.9,1.46.53,3.03.99,4.69,1.36l6.85,1.64c3.32.74,6.37,1.74,9.15,2.98,2.78,1.24,5.18,2.77,7.22,4.58,2.03,1.81,3.61,3.94,4.74,6.4,1.13,2.46,1.71,5.27,1.73,8.44-.02,4.66-1.21,8.7-3.55,12.11-2.34,3.41-5.72,6.05-10.12,7.92-4.4,1.87-9.7,2.81-15.9,2.81s-11.5-.94-16.05-2.83c-4.55-1.88-8.1-4.68-10.64-8.39-2.54-3.71-3.88-8.3-4-13.78h15.59c.17,2.55.91,4.68,2.21,6.38,1.3,1.7,3.05,2.98,5.25,3.83,2.19.86,4.68,1.28,7.46,1.28s5.1-.4,7.12-1.19,3.59-1.9,4.71-3.31c1.12-1.41,1.67-3.04,1.67-4.87,0-1.71-.5-3.15-1.51-4.32-1-1.17-2.47-2.16-4.39-2.98-1.92-.82-4.27-1.56-7.05-2.23l-8.3-2.08c-6.42-1.56-11.5-4.01-15.22-7.33-3.72-3.32-5.57-7.8-5.54-13.43-.02-4.61,1.21-8.64,3.7-12.09,2.49-3.45,5.92-6.14,10.29-8.07,4.36-1.93,9.33-2.9,14.88-2.9s10.6.97,14.83,2.9,7.52,4.63,9.88,8.07c2.36,3.45,3.57,7.44,3.65,11.98h-15.44Z"/>
        <path class="cls-3" d="M206.45,137.19c-1.95,0-3.76-.15-5.46-.45-1.69-.3-3.09-.68-4.2-1.13l3.46-11.45c1.8.55,3.43.85,4.88.9,1.45.05,2.71-.29,3.78-1.01,1.07-.72,1.94-1.94,2.61-3.67l.9-2.34-19.85-56.91h16.14l11.45,40.63h.58l11.56-40.63h16.24l-21.5,61.3c-1.03,2.98-2.43,5.58-4.2,7.8-1.77,2.22-3.99,3.94-6.68,5.15-2.69,1.21-5.93,1.82-9.72,1.82Z"/>
        <path class="cls-3" d="M271.75,85.36v31.98h-15.34v-55.32h14.62v9.76h.65c1.22-3.22,3.28-5.77,6.16-7.65,2.88-1.88,6.38-2.83,10.48-2.83,3.84,0,7.19.84,10.05,2.52,2.86,1.68,5.08,4.08,6.66,7.19,1.58,3.11,2.38,6.81,2.38,11.11v35.23h-15.34v-32.49c.02-3.39-.84-6.03-2.59-7.94-1.75-1.91-4.17-2.86-7.24-2.86-2.07,0-3.88.44-5.46,1.33-1.57.89-2.8,2.18-3.67,3.87-.88,1.69-1.33,3.73-1.35,6.11Z"/>
        <path class="cls-3" d="M344.47,117.52c-5.67,0-10.54-1.21-14.61-3.62-4.07-2.41-7.19-5.77-9.36-10.07-2.17-4.3-3.26-9.24-3.26-14.84s1.1-10.64,3.3-14.93c2.2-4.29,5.32-7.64,9.38-10.05,4.06-2.41,8.88-3.62,14.48-3.62,4.83,0,9.05.88,12.68,2.63,3.63,1.75,6.49,4.21,8.61,7.38,2.11,3.17,3.28,6.89,3.49,11.17h-14.48c-.41-2.76-1.48-4.99-3.22-6.68-1.74-1.69-4.02-2.54-6.83-2.54-2.38,0-4.45.64-6.21,1.93-1.77,1.29-3.14,3.15-4.12,5.6-.98,2.45-1.48,5.42-1.48,8.9s.49,6.53,1.46,9c.97,2.47,2.35,4.36,4.12,5.65,1.78,1.3,3.85,1.95,6.23,1.95,1.75,0,3.33-.36,4.74-1.08s2.57-1.77,3.49-3.15c.92-1.38,1.53-3.04,1.82-4.99h14.48c-.24,4.23-1.39,7.94-3.44,11.15-2.05,3.21-4.88,5.71-8.48,7.51-3.6,1.8-7.86,2.7-12.79,2.7Z"/>
        <path class="cls-3" d="M408.48,61.43v11.53h-33.32v-11.53h33.32ZM382.73,48.17h15.34v51.58c0,1.42.22,2.52.65,3.3.43.78,1.04,1.33,1.82,1.64.78.31,1.69.47,2.72.47.72,0,1.44-.07,2.16-.2.72-.13,1.27-.23,1.66-.31l2.41,11.42c-.77.24-1.85.52-3.24.85-1.39.32-3.09.52-5.08.59-3.7.14-6.93-.35-9.71-1.48s-4.93-2.88-6.47-5.26c-1.54-2.38-2.29-5.38-2.27-9v-53.59Z"/>
        <path class="cls-3" d="M426.16,54.99c-2.28,0-4.23-.76-5.85-2.27s-2.43-3.34-2.43-5.47.82-3.97,2.45-5.49c1.63-1.52,3.58-2.29,5.83-2.29s4.23.76,5.85,2.27c1.62,1.51,2.43,3.34,2.43,5.47s-.81,3.97-2.43,5.49c-1.62,1.53-3.57,2.29-5.85,2.29ZM418.46,117.45v-55.32h15.34v55.32h-15.34Z"/>
        <path class="cls-3" d="M446.05,137.36V61.29h15.13v9.29h.68c.67-1.49,1.65-3.01,2.94-4.56,1.28-1.55,2.96-2.85,5.04-3.89,2.08-1.04,4.66-1.57,7.76-1.57,4.03,0,7.76,1.05,11.17,3.15,3.41,2.1,6.14,5.26,8.18,9.47,2.04,4.21,3.06,9.49,3.06,15.83s-.99,11.38-2.97,15.61c-1.98,4.24-4.67,7.44-8.07,9.62-3.4,2.17-7.2,3.26-11.4,3.26-2.98,0-5.51-.49-7.58-1.48-2.08-.98-3.78-2.23-5.1-3.73-1.32-1.5-2.33-3.02-3.03-4.56h-.47v29.61h-15.34ZM461.06,88.96c0,3.29.46,6.16,1.37,8.61.91,2.45,2.23,4.35,3.96,5.71,1.73,1.36,3.83,2.04,6.3,2.04s4.61-.69,6.34-2.07c1.73-1.38,3.04-3.3,3.94-5.76.9-2.46,1.35-5.3,1.35-8.52s-.44-6-1.33-8.43c-.89-2.43-2.2-4.32-3.93-5.69-1.73-1.37-3.85-2.05-6.37-2.05s-4.6.66-6.32,1.98c-1.72,1.32-3.03,3.19-3.94,5.62-.91,2.43-1.37,5.28-1.37,8.57Z"/>
      </g>
      <g>
        <path class="cls-2" d="M247.64,170.53v-19.4h7.1c1.38,0,2.52.23,3.42.68s1.58,1.06,2.03,1.83c.45.77.67,1.63.67,2.59,0,.81-.15,1.49-.45,2.04-.3.55-.69.99-1.19,1.33-.5.33-1.04.57-1.63.72v.19c.64.03,1.27.24,1.89.62s1.13.92,1.53,1.62c.4.7.61,1.55.61,2.56s-.23,1.88-.7,2.67-1.18,1.41-2.15,1.87c-.97.46-2.2.69-3.7.69h-7.44ZM250.57,159.52h3.92c.66,0,1.25-.13,1.78-.38.53-.25.95-.61,1.26-1.07.31-.46.47-1,.47-1.62,0-.8-.28-1.47-.84-2.02-.56-.54-1.42-.81-2.59-.81h-4v5.9ZM250.57,168.02h4.22c1.4,0,2.41-.27,3.01-.81.61-.54.91-1.22.91-2.04,0-.61-.15-1.17-.46-1.69-.31-.51-.75-.92-1.32-1.22-.57-.3-1.25-.45-2.03-.45h-4.33v6.21Z"/>
        <path class="cls-2" d="M274.08,164.5v-8.52h2.84v14.55h-2.79v-2.52h-.15c-.33.78-.87,1.42-1.61,1.94-.74.52-1.65.77-2.74.77-.93,0-1.76-.21-2.48-.62-.72-.41-1.28-1.03-1.69-1.84-.41-.81-.61-1.82-.61-3.02v-9.26h2.83v8.91c0,.99.27,1.78.82,2.37.55.59,1.26.88,2.14.88.53,0,1.06-.13,1.59-.4.53-.27.97-.67,1.32-1.2.35-.54.52-1.22.52-2.05Z"/>
        <path class="cls-2" d="M282.15,153.73c-.49,0-.91-.17-1.26-.5-.35-.33-.53-.73-.53-1.19s.18-.87.53-1.2c.35-.33.77-.5,1.26-.5s.91.17,1.26.5c.35.33.53.73.53,1.19s-.18.87-.53,1.2c-.35.33-.77.5-1.26.5ZM280.72,170.53v-14.55h2.83v14.55h-2.83Z"/>
        <path class="cls-2" d="M290.19,151.13v19.4h-2.83v-19.4h2.83Z"/>
        <path class="cls-2" d="M299.45,170.81c-1.17,0-2.22-.3-3.14-.9-.92-.6-1.64-1.47-2.16-2.59-.52-1.12-.78-2.47-.78-4.04s.26-2.92.79-4.04,1.25-1.97,2.17-2.57c.92-.59,1.97-.89,3.14-.89.9,0,1.63.15,2.18.45.55.3.98.65,1.29,1.05s.54.75.72,1.05h.17v-7.21h2.83v19.4h-2.77v-2.26h-.24c-.17.31-.42.66-.73,1.06s-.76.75-1.31,1.04c-.56.3-1.28.45-2.16.45ZM300.07,168.4c.81,0,1.5-.22,2.07-.65.56-.43.99-1.03,1.29-1.8s.44-1.67.44-2.69-.15-1.89-.44-2.65c-.29-.76-.72-1.35-1.28-1.77-.56-.42-1.26-.63-2.08-.63s-1.56.22-2.13.66c-.57.44-1,1.05-1.28,1.81-.29.76-.43,1.63-.43,2.59s.15,1.85.44,2.62c.29.78.72,1.39,1.29,1.84.57.45,1.28.68,2.12.68Z"/>
        <path class="cls-2" d="M312.12,153.73c-.49,0-.91-.17-1.26-.5-.35-.33-.53-.73-.53-1.19s.18-.87.53-1.2c.35-.33.77-.5,1.26-.5s.91.17,1.26.5c.35.33.53.73.53,1.19s-.18.87-.53,1.2c-.35.33-.77.5-1.26.5ZM310.69,170.53v-14.55h2.83v14.55h-2.83Z"/>
        <path class="cls-2" d="M320.17,161.89v8.64h-2.83v-14.55h2.72v2.37h.18c.33-.77.86-1.39,1.58-1.86.72-.47,1.62-.7,2.71-.7.99,0,1.86.21,2.61.62.74.41,1.32,1.03,1.73,1.84.41.81.62,1.82.62,3.02v9.25h-2.83v-8.91c0-1.05-.27-1.88-.82-2.48-.55-.6-1.3-.9-2.26-.9-.66,0-1.24.14-1.75.43-.51.28-.91.7-1.2,1.25-.29.55-.44,1.2-.44,1.98Z"/>
        <path class="cls-2" d="M339.37,176.29c-1.16,0-2.15-.15-2.98-.45-.83-.3-1.51-.7-2.03-1.2s-.92-1.05-1.17-1.64l2.43-1c.17.28.4.57.69.89.29.31.68.58,1.17.8.5.22,1.13.33,1.92.33,1.07,0,1.96-.26,2.66-.78.7-.52,1.05-1.35,1.05-2.49v-2.86h-.18c-.17.31-.42.65-.73,1.03-.32.38-.76.71-1.31.99s-1.28.42-2.17.42c-1.15,0-2.18-.27-3.1-.81-.92-.54-1.65-1.34-2.18-2.4-.53-1.06-.8-2.36-.8-3.91s.26-2.87.79-3.98,1.25-1.95,2.17-2.54c.92-.59,1.97-.89,3.14-.89.9,0,1.63.15,2.19.45.56.3.99.65,1.3,1.05s.55.75.72,1.05h.21v-2.36h2.78v14.87c0,1.25-.29,2.28-.87,3.08-.58.8-1.37,1.4-2.35,1.78-.99.39-2.1.58-3.34.58ZM339.34,167.96c.81,0,1.5-.19,2.07-.57.56-.38.99-.93,1.29-1.65s.44-1.58.44-2.58-.15-1.84-.44-2.59c-.29-.75-.72-1.33-1.28-1.75-.56-.42-1.26-.63-2.08-.63s-1.56.22-2.13.66-1,1.03-1.28,1.79c-.29.75-.43,1.59-.43,2.52s.15,1.79.44,2.51c.29.72.72,1.28,1.29,1.69.57.4,1.28.61,2.12.61Z"/>
        <path class="cls-2" d="M363.59,155.98v2.27h-7.95v-2.27h7.95ZM357.77,152.49h2.83v13.76c0,.55.08.96.25,1.24.16.27.38.46.64.56s.55.15.86.15c.23,0,.43-.02.6-.05.17-.03.3-.06.4-.08l.51,2.34c-.16.06-.4.13-.7.19s-.68.1-1.14.11c-.75.01-1.44-.12-2.08-.4-.64-.28-1.16-.71-1.56-1.29-.4-.58-.6-1.31-.6-2.19v-14.35Z"/>
        <path class="cls-2" d="M369.85,161.89v8.64h-2.83v-19.4h2.79v7.22h.18c.34-.78.86-1.41,1.56-1.87.7-.46,1.62-.69,2.75-.69,1,0,1.87.21,2.62.62.75.41,1.33,1.02,1.74,1.83s.62,1.82.62,3.04v9.25h-2.83v-8.91c0-1.07-.27-1.9-.82-2.49-.55-.59-1.31-.89-2.29-.89-.67,0-1.27.14-1.8.43s-.94.7-1.24,1.25c-.3.55-.45,1.2-.45,1.98Z"/>
        <path class="cls-2" d="M389.35,170.82c-1.43,0-2.67-.31-3.7-.92-1.03-.62-1.83-1.48-2.39-2.6-.56-1.12-.84-2.44-.84-3.95s.28-2.8.84-3.94c.56-1.14,1.34-2.02,2.35-2.66,1.01-.64,2.19-.96,3.54-.96.82,0,1.62.14,2.39.41.77.27,1.46.7,2.07,1.28s1.1,1.33,1.45,2.26c.35.93.53,2.05.53,3.37v1h-11.57v-2.12h8.79c0-.75-.15-1.41-.45-1.98-.3-.58-.73-1.03-1.27-1.37s-1.19-.5-1.92-.5c-.8,0-1.49.19-2.08.58-.59.39-1.05.89-1.36,1.52-.32.62-.48,1.3-.48,2.02v1.66c0,.97.17,1.8.52,2.48.34.68.83,1.2,1.44,1.56.62.36,1.34.54,2.17.54.54,0,1.03-.08,1.47-.23.44-.15.82-.39,1.15-.7.32-.31.57-.69.74-1.15l2.68.48c-.21.79-.6,1.48-1.15,2.07-.55.59-1.24,1.05-2.07,1.37-.83.33-1.78.49-2.84.49Z"/>
        <path class="cls-2" d="M412.74,155.98v2.27h-8.22v-2.27h8.22ZM406.77,170.53v-16.24c0-.91.2-1.67.6-2.27s.93-1.05,1.58-1.35c.66-.3,1.37-.45,2.14-.45.57,0,1.05.05,1.46.14.4.09.7.18.9.25l-.66,2.29c-.13-.04-.3-.08-.51-.14-.21-.05-.46-.08-.76-.08-.69,0-1.18.17-1.47.51-.29.34-.44.83-.44,1.48v15.86h-2.83Z"/>
        <path class="cls-2" d="M424.87,164.5v-8.52h2.84v14.55h-2.79v-2.52h-.15c-.33.78-.87,1.42-1.61,1.94-.74.52-1.65.77-2.74.77-.93,0-1.76-.21-2.48-.62-.72-.41-1.28-1.03-1.69-1.84-.41-.81-.61-1.82-.61-3.02v-9.26h2.83v8.91c0,.99.27,1.78.82,2.37.55.59,1.26.88,2.14.88.53,0,1.06-.13,1.59-.4.53-.27.97-.67,1.32-1.2.35-.54.52-1.22.52-2.05Z"/>
        <path class="cls-2" d="M438.3,155.98v2.27h-7.95v-2.27h7.95ZM432.49,152.49h2.83v13.76c0,.55.08.96.25,1.24.16.27.38.46.64.56s.55.15.86.15c.23,0,.43-.02.6-.05.17-.03.3-.06.4-.08l.51,2.34c-.16.06-.4.13-.7.19s-.68.1-1.14.11c-.75.01-1.44-.12-2.08-.4-.64-.28-1.16-.71-1.56-1.29-.4-.58-.6-1.31-.6-2.19v-14.35Z"/>
        <path class="cls-2" d="M450.65,164.5v-8.52h2.84v14.55h-2.79v-2.52h-.15c-.33.78-.87,1.42-1.61,1.94-.74.52-1.65.77-2.74.77-.93,0-1.76-.21-2.48-.62-.72-.41-1.28-1.03-1.69-1.84-.41-.81-.61-1.82-.61-3.02v-9.26h2.83v8.91c0,.99.27,1.78.82,2.37.55.59,1.26.88,2.14.88.53,0,1.06-.13,1.59-.4.53-.27.97-.67,1.32-1.2.35-.54.52-1.22.52-2.05Z"/>
        <path class="cls-2" d="M457.29,170.53v-14.55h2.74v2.31h.15c.27-.78.73-1.4,1.41-1.85.67-.45,1.44-.68,2.29-.68.18,0,.39,0,.63.02s.43.03.57.05v2.71c-.11-.03-.32-.07-.61-.11-.29-.04-.58-.06-.87-.06-.67,0-1.26.14-1.79.42-.52.28-.93.67-1.24,1.17-.3.5-.45,1.06-.45,1.69v8.89h-2.83Z"/>
        <path class="cls-2" d="M473.28,170.82c-1.43,0-2.67-.31-3.7-.92-1.03-.62-1.83-1.48-2.39-2.6-.56-1.12-.84-2.44-.84-3.95s.28-2.8.84-3.94c.56-1.14,1.34-2.02,2.35-2.66,1.01-.64,2.19-.96,3.54-.96.82,0,1.62.14,2.39.41.77.27,1.46.7,2.07,1.28s1.1,1.33,1.45,2.26c.35.93.53,2.05.53,3.37v1h-11.57v-2.12h8.79c0-.75-.15-1.41-.45-1.98-.3-.58-.73-1.03-1.27-1.37s-1.19-.5-1.92-.5c-.8,0-1.49.19-2.08.58-.59.39-1.05.89-1.36,1.52-.32.62-.48,1.3-.48,2.02v1.66c0,.97.17,1.8.52,2.48.34.68.83,1.2,1.44,1.56.62.36,1.34.54,2.17.54.54,0,1.03-.08,1.47-.23.44-.15.82-.39,1.15-.7.32-.31.57-.69.74-1.15l2.68.48c-.21.79-.6,1.48-1.15,2.07-.55.59-1.24,1.05-2.07,1.37-.83.33-1.78.49-2.84.49Z"/>
      </g>
    </g>
  </g>
</svg>