<?xml version="1.0" encoding="UTF-8"?>
<svg id="Layer_2" data-name="Layer 2" xmlns="http://www.w3.org/2000/svg" viewBox="0 0 181.52 64">
  <defs>
    <style>
      .cls-1 {
        fill: #1f7a63;
      }

      .cls-2 {
        fill: #6b7280;
      }

      .cls-3 {
        fill: #0f1720;
      }
    </style>
  </defs>
  <g id="Layer_4" data-name="Layer 4">
    <g>
      <g>
        <path class="cls-1" d="M28.53,12.08l-4.58,7.94c-.75,1.3-.66,2.9.17,4.14,1.56,2.31,2.43,5.12,2.32,8.15-.26,7.04-5.94,12.79-12.97,13.13-1.37.07-2.71-.07-3.97-.38l-3.39,5.88c-1.36,2.35.04,5.35,2.72,5.78,1.65.26,3.36.36,5.1.28,13.06-.58,23.58-11.19,24.06-24.25.31-8.36-3.46-15.85-9.46-20.65Z"/>
        <path class="cls-1" d="M9.48,44.93l4.58-7.94c.67-1.17.58-3.02-.17-4.14-1.56-2.31-2.43-5.12-2.32-8.15.26-7.04,5.94-12.79,12.97-13.13,1.37-.07,2.71.07,3.97.38l3.39-5.88c1.54-2.67.32-5.3-2.72-5.78C27.53.05,25.82-.05,24.08.03,11.02.6.5,11.21.02,24.28c-.31,8.36,3.46,15.85,9.46,20.65Z"/>
      </g>
      <g>
        <path class="cls-3" d="M62.54,22.55c-.11-1.09-.57-1.94-1.39-2.54-.82-.6-1.93-.9-3.34-.9-.95,0-1.76.13-2.42.4-.66.27-1.16.63-1.51,1.1-.35.47-.52,1-.52,1.59-.02.5.09.93.32,1.3.23.37.55.69.95.95.41.27.87.5,1.4.69.53.19,1.1.36,1.7.49l2.49.59c1.21.27,2.31.63,3.32,1.08,1.01.45,1.88,1,2.62,1.66.74.66,1.31,1.43,1.72,2.32.41.89.62,1.91.63,3.07,0,1.69-.44,3.16-1.29,4.4-.85,1.24-2.08,2.2-3.67,2.88s-3.52,1.02-5.77,1.02-4.18-.34-5.83-1.03c-1.65-.68-2.94-1.7-3.86-3.05-.92-1.35-1.41-3.01-1.45-5h5.66c.06.93.33,1.7.8,2.32.47.62,1.11,1.08,1.9,1.39.8.31,1.7.47,2.71.47s1.85-.14,2.59-.43,1.3-.69,1.71-1.2c.41-.51.61-1.1.61-1.77,0-.62-.18-1.14-.55-1.57-.36-.42-.9-.78-1.59-1.08-.7-.3-1.55-.57-2.56-.81l-3.01-.76c-2.33-.57-4.17-1.45-5.52-2.66-1.35-1.21-2.02-2.83-2.01-4.88,0-1.67.44-3.14,1.34-4.39.91-1.25,2.15-2.23,3.73-2.93,1.58-.7,3.39-1.05,5.4-1.05s3.85.35,5.38,1.05,2.73,1.68,3.59,2.93c.86,1.25,1.3,2.7,1.32,4.35h-5.61Z"/>
        <path class="cls-3" d="M74.95,49.8c-.71,0-1.37-.05-1.98-.16-.61-.11-1.12-.25-1.52-.41l1.26-4.16c.65.2,1.24.31,1.77.33.53.02.98-.1,1.37-.37.39-.26.7-.71.95-1.33l.33-.85-7.2-20.66h5.86l4.16,14.75h.21l4.2-14.75h5.9l-7.81,22.26c-.37,1.08-.88,2.02-1.52,2.83-.64.81-1.45,1.43-2.43,1.87-.98.44-2.15.66-3.53.66Z"/>
        <path class="cls-3" d="M98.66,30.99v11.61h-5.57v-20.08h5.31v3.54h.24c.44-1.17,1.19-2.09,2.24-2.78,1.05-.68,2.31-1.03,3.81-1.03,1.39,0,2.61.31,3.65.92,1.04.61,1.84,1.48,2.42,2.61.58,1.13.86,2.47.86,4.03v12.79h-5.57v-11.79c0-1.23-.31-2.19-.94-2.88-.64-.69-1.51-1.04-2.63-1.04-.75,0-1.41.16-1.98.48-.57.32-1.02.79-1.33,1.41-.32.61-.48,1.35-.49,2.22Z"/>
        <path class="cls-3" d="M125.06,42.67c-2.06,0-3.82-.44-5.3-1.31-1.48-.88-2.61-2.09-3.4-3.65-.79-1.56-1.18-3.36-1.18-5.39s.4-3.86,1.2-5.42c.8-1.56,1.93-2.77,3.41-3.65,1.47-.88,3.23-1.31,5.26-1.31,1.75,0,3.29.32,4.6.95,1.32.64,2.36,1.53,3.13,2.68.77,1.15,1.19,2.5,1.27,4.05h-5.26c-.15-1-.54-1.81-1.17-2.43-.63-.61-1.46-.92-2.48-.92-.86,0-1.61.23-2.26.7-.64.47-1.14,1.14-1.5,2.03-.36.89-.54,1.97-.54,3.23s.18,2.37.53,3.27c.35.9.85,1.58,1.5,2.05.65.47,1.4.71,2.26.71.64,0,1.21-.13,1.72-.39s.93-.64,1.27-1.14c.34-.5.56-1.1.66-1.81h5.26c-.09,1.53-.5,2.88-1.25,4.05s-1.77,2.07-3.08,2.73-2.86.98-4.64.98Z"/>
        <path class="cls-3" d="M148.29,22.3v4.18h-12.1v-4.18h12.1ZM138.94,17.49h5.57v18.72c0,.51.08.91.24,1.2.16.28.38.48.66.6.28.11.61.17.99.17.26,0,.52-.02.78-.07.26-.05.46-.08.6-.11l.88,4.15c-.28.09-.67.19-1.18.31-.51.12-1.12.19-1.84.22-1.34.05-2.52-.13-3.52-.54s-1.79-1.05-2.35-1.91-.83-1.95-.82-3.27v-19.46Z"/>
        <path class="cls-3" d="M154.71,19.96c-.83,0-1.54-.27-2.12-.82s-.88-1.21-.88-1.99.3-1.44.89-1.99c.59-.55,1.3-.83,2.12-.83s1.54.27,2.12.82c.59.55.88,1.21.88,1.99s-.29,1.44-.88,1.99c-.59.55-1.3.83-2.12.83ZM151.92,42.64v-20.08h5.57v20.08h-5.57Z"/>
        <path class="cls-3" d="M161.93,49.87v-27.62h5.49v3.37h.25c.24-.54.6-1.09,1.07-1.65.47-.56,1.08-1.03,1.83-1.41.75-.38,1.69-.57,2.82-.57,1.46,0,2.82.38,4.05,1.14,1.24.76,2.23,1.91,2.97,3.44.74,1.53,1.11,3.45,1.11,5.75s-.36,4.13-1.08,5.67c-.72,1.54-1.7,2.7-2.93,3.49-1.23.79-2.61,1.18-4.14,1.18-1.08,0-2-.18-2.75-.54-.75-.36-1.37-.81-1.85-1.35-.48-.54-.85-1.1-1.1-1.65h-.17v10.75h-5.57ZM167.38,32.29c0,1.19.17,2.24.5,3.13.33.89.81,1.58,1.44,2.07.63.49,1.39.74,2.29.74s1.67-.25,2.3-.75c.63-.5,1.1-1.2,1.43-2.09.33-.89.49-1.92.49-3.09s-.16-2.18-.48-3.06c-.32-.88-.8-1.57-1.43-2.07-.63-.5-1.4-.75-2.31-.75s-1.67.24-2.29.72c-.62.48-1.1,1.16-1.43,2.04-.33.88-.5,1.92-.5,3.11Z"/>
      </g>
      <g>
        <path class="cls-2" d="M89.9,61.91v-7.04h2.58c.5,0,.91.08,1.24.25s.57.39.74.66c.16.28.24.59.24.94,0,.29-.05.54-.16.74-.11.2-.25.36-.43.48-.18.12-.38.21-.59.26v.07c.23.01.46.09.69.23s.41.34.56.59c.15.25.22.56.22.93s-.08.68-.25.97-.43.51-.78.68c-.35.17-.8.25-1.34.25h-2.7ZM90.97,57.91h1.42c.24,0,.45-.05.64-.14.19-.09.34-.22.46-.39.11-.17.17-.36.17-.59,0-.29-.1-.54-.31-.73-.2-.2-.52-.3-.94-.3h-1.45v2.14ZM90.97,61h1.53c.51,0,.87-.1,1.09-.3.22-.2.33-.44.33-.74,0-.22-.06-.43-.17-.61-.11-.19-.27-.33-.48-.44-.21-.11-.45-.17-.74-.17h-1.57v2.26Z"/>
        <path class="cls-2" d="M99.5,59.72v-3.09h1.03v5.28h-1.01v-.91h-.06c-.12.28-.32.52-.58.7-.27.19-.6.28-1,.28-.34,0-.64-.08-.9-.23-.26-.15-.46-.37-.61-.67-.15-.3-.22-.66-.22-1.1v-3.36h1.03v3.24c0,.36.1.65.3.86.2.21.46.32.78.32.19,0,.38-.05.58-.14.19-.1.35-.24.48-.44.13-.19.19-.44.19-.74Z"/>
        <path class="cls-2" d="M102.43,55.81c-.18,0-.33-.06-.46-.18-.13-.12-.19-.26-.19-.43s.06-.31.19-.43c.13-.12.28-.18.46-.18s.33.06.46.18c.13.12.19.26.19.43s-.06.31-.19.43c-.13.12-.28.18-.46.18ZM101.91,61.91v-5.28h1.03v5.28h-1.03Z"/>
        <path class="cls-2" d="M105.35,54.87v7.04h-1.03v-7.04h1.03Z"/>
        <path class="cls-2" d="M108.71,62.01c-.43,0-.81-.11-1.14-.33-.33-.22-.59-.53-.78-.94-.19-.41-.28-.9-.28-1.47s.1-1.06.29-1.47.45-.72.79-.93c.33-.22.71-.32,1.14-.32.33,0,.59.05.79.16.2.11.36.24.47.38s.2.27.26.38h.06v-2.62h1.03v7.04h-1v-.82h-.09c-.06.11-.15.24-.27.39s-.27.27-.48.38c-.2.11-.46.16-.78.16ZM108.94,61.14c.3,0,.55-.08.75-.24.21-.16.36-.38.47-.66s.16-.61.16-.98-.05-.69-.16-.96c-.11-.28-.26-.49-.46-.64-.2-.15-.46-.23-.76-.23s-.57.08-.77.24c-.21.16-.36.38-.47.66-.1.28-.16.59-.16.94s.05.67.16.95c.11.28.26.5.47.67.21.16.46.25.77.25Z"/>
        <path class="cls-2" d="M113.31,55.81c-.18,0-.33-.06-.46-.18-.13-.12-.19-.26-.19-.43s.06-.31.19-.43c.13-.12.28-.18.46-.18s.33.06.46.18c.13.12.19.26.19.43s-.06.31-.19.43c-.13.12-.28.18-.46.18ZM112.79,61.91v-5.28h1.03v5.28h-1.03Z"/>
        <path class="cls-2" d="M116.23,58.77v3.14h-1.03v-5.28h.99v.86h.07c.12-.28.31-.5.57-.67.26-.17.59-.25.99-.25.36,0,.68.08.95.23.27.15.48.37.63.67.15.3.22.66.22,1.1v3.36h-1.03v-3.24c0-.38-.1-.68-.3-.9-.2-.22-.47-.32-.82-.32-.24,0-.45.05-.63.15-.18.1-.33.25-.44.45-.11.2-.16.44-.16.72Z"/>
        <path class="cls-2" d="M123.2,64c-.42,0-.78-.05-1.08-.17-.3-.11-.55-.26-.74-.44s-.33-.38-.43-.59l.88-.36c.06.1.14.21.25.32.1.11.25.21.43.29.18.08.41.12.7.12.39,0,.71-.09.97-.28.25-.19.38-.49.38-.9v-1.04h-.07c-.06.11-.15.24-.27.37-.12.14-.27.26-.48.36s-.46.15-.79.15c-.42,0-.79-.1-1.13-.29-.33-.2-.6-.49-.79-.87-.19-.38-.29-.86-.29-1.42s.1-1.04.29-1.44.45-.71.79-.92c.33-.21.71-.32,1.14-.32.33,0,.59.05.79.16.2.11.36.24.47.38s.2.27.26.38h.08v-.86h1.01v5.4c0,.45-.11.83-.32,1.12-.21.29-.5.51-.85.65-.36.14-.76.21-1.21.21ZM123.19,60.98c.3,0,.55-.07.75-.21.21-.14.36-.34.47-.6s.16-.57.16-.94-.05-.67-.16-.94c-.11-.27-.26-.48-.46-.63-.2-.15-.46-.23-.76-.23s-.57.08-.77.24-.36.38-.47.65c-.1.27-.16.58-.16.91s.05.65.16.91c.11.26.26.47.47.61.21.15.46.22.77.22Z"/>
        <path class="cls-2" d="M132,56.63v.83h-2.89v-.83h2.89ZM129.89,55.36h1.03v5c0,.2.03.35.09.45.06.1.14.17.23.2s.2.05.31.05c.08,0,.15,0,.22-.02.06-.01.11-.02.14-.03l.19.85c-.06.02-.14.05-.25.07s-.25.04-.41.04c-.27,0-.52-.04-.76-.14-.23-.1-.42-.26-.57-.47-.14-.21-.22-.48-.22-.79v-5.21Z"/>
        <path class="cls-2" d="M134.27,58.77v3.14h-1.03v-7.04h1.01v2.62h.07c.12-.28.31-.51.57-.68.25-.17.59-.25,1-.25.36,0,.68.07.95.22.27.15.48.37.63.67s.23.66.23,1.1v3.36h-1.03v-3.24c0-.39-.1-.69-.3-.9-.2-.21-.48-.32-.83-.32-.24,0-.46.05-.65.15s-.34.25-.45.45c-.11.2-.16.44-.16.72Z"/>
        <path class="cls-2" d="M141.35,62.02c-.52,0-.97-.11-1.34-.34-.37-.22-.66-.54-.87-.95-.2-.41-.3-.88-.3-1.43s.1-1.02.3-1.43c.2-.41.49-.73.85-.97.37-.23.79-.35,1.28-.35.3,0,.59.05.87.15.28.1.53.25.75.46s.4.48.53.82c.13.34.19.74.19,1.22v.36h-4.2v-.77h3.19c0-.27-.06-.51-.17-.72-.11-.21-.26-.38-.46-.5s-.43-.18-.7-.18c-.29,0-.54.07-.75.21-.21.14-.38.32-.5.55-.12.23-.17.47-.17.73v.6c0,.35.06.65.19.9.12.25.3.44.52.57.22.13.49.19.79.19.19,0,.37-.03.53-.08.16-.06.3-.14.42-.25.12-.11.21-.25.27-.42l.97.18c-.08.29-.22.54-.42.75-.2.21-.45.38-.75.5-.3.12-.64.18-1.03.18Z"/>
        <path class="cls-2" d="M149.84,56.63v.83h-2.99v-.83h2.99ZM147.67,61.91v-5.89c0-.33.07-.6.22-.82s.34-.38.57-.49c.24-.11.5-.16.78-.16.21,0,.38.02.53.05.15.03.26.06.33.09l-.24.83s-.11-.03-.19-.05c-.08-.02-.17-.03-.28-.03-.25,0-.43.06-.53.19-.11.12-.16.3-.16.54v5.76h-1.03Z"/>
        <path class="cls-2" d="M154.24,59.72v-3.09h1.03v5.28h-1.01v-.91h-.06c-.12.28-.32.52-.58.7-.27.19-.6.28-1,.28-.34,0-.64-.08-.9-.23-.26-.15-.46-.37-.61-.67-.15-.3-.22-.66-.22-1.1v-3.36h1.03v3.24c0,.36.1.65.3.86.2.21.46.32.78.32.19,0,.38-.05.58-.14.19-.1.35-.24.48-.44.13-.19.19-.44.19-.74Z"/>
        <path class="cls-2" d="M159.12,56.63v.83h-2.89v-.83h2.89ZM157.01,55.36h1.03v5c0,.2.03.35.09.45.06.1.14.17.23.2s.2.05.31.05c.08,0,.15,0,.22-.02.06-.01.11-.02.14-.03l.19.85c-.06.02-.14.05-.25.07s-.25.04-.41.04c-.27,0-.52-.04-.76-.14-.23-.1-.42-.26-.57-.47-.14-.21-.22-.48-.22-.79v-5.21Z"/>
        <path class="cls-2" d="M163.6,59.72v-3.09h1.03v5.28h-1.01v-.91h-.06c-.12.28-.32.52-.58.7-.27.19-.6.28-1,.28-.34,0-.64-.08-.9-.23-.26-.15-.46-.37-.61-.67-.15-.3-.22-.66-.22-1.1v-3.36h1.03v3.24c0,.36.1.65.3.86.2.21.46.32.78.32.19,0,.38-.05.58-.14.19-.1.35-.24.48-.44.13-.19.19-.44.19-.74Z"/>
        <path class="cls-2" d="M166.01,61.91v-5.28h.99v.84h.06c.1-.28.27-.51.51-.67.24-.16.52-.25.83-.25.06,0,.14,0,.23,0s.16.01.21.02v.98s-.11-.02-.22-.04c-.11-.01-.21-.02-.32-.02-.24,0-.46.05-.65.15-.19.1-.34.24-.45.42-.11.18-.17.38-.17.61v3.23h-1.03Z"/>
        <path class="cls-2" d="M171.82,62.02c-.52,0-.97-.11-1.34-.34-.37-.22-.66-.54-.87-.95-.2-.41-.3-.88-.3-1.43s.1-1.02.3-1.43c.2-.41.49-.73.85-.97.37-.23.79-.35,1.28-.35.3,0,.59.05.87.15.28.1.53.25.75.46s.4.48.53.82c.13.34.19.74.19,1.22v.36h-4.2v-.77h3.19c0-.27-.06-.51-.17-.72-.11-.21-.26-.38-.46-.5s-.43-.18-.7-.18c-.29,0-.54.07-.75.21-.21.14-.38.32-.5.55-.12.23-.17.47-.17.73v.6c0,.35.06.65.19.9.12.25.3.44.52.57.22.13.49.19.79.19.19,0,.37-.03.53-.08.16-.06.3-.14.42-.25.12-.11.21-.25.27-.42l.97.18c-.08.29-.22.54-.42.75-.2.21-.45.38-.75.5-.3.12-.64.18-1.03.18Z"/>
      </g>
    </g>
  </g>
</svg>